# xmcd
# 
# Track frame offsets:
#     150
#     29312
#     45372
#     61281
#     77023
#     97168
#     116755
#     133034
#     148326
#     176888
#     198123
#     215847
#     242197
#     272016
#     296173
#     318548
# 
# Disc length: 4591
# 
# Revision: 0
# Processed by: cddbd v1.5.2PL0 Copyright (c) Steve Scherf et al.
# Submitted via: fre:ac v1.0.31
# 
DISCID=fe11ed10
DTITLE=Bar-Kays - The Best of Bar-Kays
DYEAR=1993
DGENRE=Funk
TTITLE0=Too Hot to Stop
TTITLE1=Cozy
TTITLE2=Shake Your Rump to the Funk
TTITLE3=Attitudes
TTITLE4=Shut the Funk Up
TTITLE5=Standing on the Outside
TTITLE6=Shine
TTITLE7=I'll Dance
TTITLE8=Move Your Boogie Body
TTITLE9=Deliver Us
TTITLE10=Hit and Run
TTITLE11=Anticipation
TTITLE12=Freakshow on the Dance Floor
TTITLE13=Sexomatic
TTITLE14=Certified True
TTITLE15=Struck By You
EXTD=
EXTT0=
EXTT1=
EXTT2=
EXTT3=
EXTT4=
EXTT5=
EXTT6=
EXTT7=
EXTT8=
EXTT9=
EXTT10=
EXTT11=
EXTT12=
EXTT13=
EXTT14=
EXTT15=
PLAYORDER=
